<svg xmlns="http://www.w3.org/2000/svg" xmlns:xlink="http://www.w3.org/1999/xlink" width="1080" zoomAndPan="magnify" viewBox="0 0 810 1439.999935" height="1920" preserveAspectRatio="xMidYMid meet" version="1.0"><defs><filter x="0%" y="0%" width="100%" height="100%" id="092ac185fc"><feColorMatrix values="0 0 0 0 1 0 0 0 0 1 0 0 0 0 1 0 0 0 1 0" color-interpolation-filters="sRGB"/></filter><g/><mask id="b7a9a9888f"><g filter="url(#092ac185fc)"><rect x="-81" width="972" fill="#000000" y="-143.999994" height="1727.999922" fill-opacity="0.04"/></g></mask><clipPath id="ad08cc1c72"><path d="M 0 0 L 810 0 L 810 465 L 0 465 Z M 0 0 " clip-rule="nonzero"/></clipPath><clipPath id="c519352513"><rect x="0" width="810" y="0" height="467"/></clipPath><mask id="e87ada6377"><g filter="url(#092ac185fc)"><rect x="-81" width="972" fill="#000000" y="-143.999994" height="1727.999922" fill-opacity="0.04"/></g></mask><clipPath id="1417ec9af3"><path d="M 0 0 L 225 0 L 225 793 L 0 793 Z M 0 0 " clip-rule="nonzero"/></clipPath><clipPath id="3b7e81b9a2"><rect x="0" width="227" y="0" height="795"/></clipPath><mask id="ef263d6fb3"><g filter="url(#092ac185fc)"><rect x="-81" width="972" fill="#000000" y="-143.999994" height="1727.999922" fill-opacity="0.04"/></g></mask><clipPath id="650cc50bf3"><path d="M 1 2 L 264 2 L 264 451 L 1 451 Z M 1 2 " clip-rule="nonzero"/></clipPath><clipPath id="a9706c0cb8"><rect x="0" width="264" y="0" height="451"/></clipPath><clipPath id="1fd4a79e56"><path d="M 0 1271 L 261 1271 L 261 1440 L 0 1440 Z M 0 1271 " clip-rule="nonzero"/></clipPath><clipPath id="69fadbf808"><path d="M 380.367188 1923.613281 L -495.058594 2171.152344 L -704.4375 1430.683594 L 170.988281 1183.148438 Z M 380.367188 1923.613281 " clip-rule="nonzero"/></clipPath><clipPath id="98e9afc35b"><path d="M 380.367188 1923.613281 L -495.058594 2171.152344 L -704.4375 1430.683594 L 170.988281 1183.148438 Z M 380.367188 1923.613281 " clip-rule="nonzero"/></clipPath><clipPath id="5a4aee129f"><path d="M -288.453125 1986.277344 C -250.140625 1976.726562 -216.265625 1959.03125 -187.855469 1935.617188 C -163.917969 1916.03125 -129.078125 1916.859375 -106.378906 1938.210938 C -60.300781 1980.292969 6 1998.714844 70.480469 1980.480469 C 112.414062 1968.625 147.042969 1943.027344 170.679688 1910.28125 C 208.65625 1857.25 214.605469 1787.636719 189.023438 1727.371094 L 163.882812 1668.6875 C 160.96875 1661.398438 164.207031 1653.21875 171.5 1650.300781 C 237.925781 1623.828125 275.109375 1551.367188 255.199219 1480.953125 C 238.195312 1420.824219 184.09375 1380.582031 124.976562 1378.503906 C 118.992188 1378.484375 113.296875 1374.96875 110.546875 1369.765625 C 67.722656 1293.867188 -22.460938 1254.433594 -109.886719 1279.152344 C -176.347656 1297.945312 -224.652344 1349.199219 -242.609375 1411.097656 C -255.152344 1454.375 -294.535156 1484.308594 -339.480469 1482.492188 C -365.453125 1481.292969 -392.285156 1484.605469 -418.789062 1492.101562 C -553.289062 1530.132812 -631.933594 1669 -596.105469 1803.269531 C -561.066406 1937.761719 -422.996094 2019.621094 -288.453125 1986.277344 Z M -288.453125 1986.277344 " clip-rule="nonzero"/></clipPath><linearGradient x1="-19.65337" gradientTransform="matrix(-3.955882, 1.11858, -1.11858, -3.955882, 380.255521, 1923.220963)" y1="95.099998" x2="57.024364" gradientUnits="userSpaceOnUse" y2="95.099998" id="93f2004356"><stop stop-opacity="1" stop-color="rgb(75.698853%, 15.299988%, 17.599487%)" offset="0"/><stop stop-opacity="1" stop-color="rgb(75.698853%, 15.299988%, 17.599487%)" offset="0.25"/><stop stop-opacity="1" stop-color="rgb(75.881958%, 15.493774%, 17.564392%)" offset="0.3125"/><stop stop-opacity="1" stop-color="rgb(76.167297%, 15.797424%, 17.510986%)" offset="0.34375"/><stop stop-opacity="1" stop-color="rgb(76.371765%, 16.015625%, 17.472839%)" offset="0.375"/><stop stop-opacity="1" stop-color="rgb(76.576233%, 16.2323%, 17.434692%)" offset="0.40625"/><stop stop-opacity="1" stop-color="rgb(76.780701%, 16.448975%, 17.396545%)" offset="0.4375"/><stop stop-opacity="1" stop-color="rgb(76.983643%, 16.665649%, 17.359924%)" offset="0.46875"/><stop stop-opacity="1" stop-color="rgb(77.18811%, 16.88385%, 17.321777%)" offset="0.5"/><stop stop-opacity="1" stop-color="rgb(77.392578%, 17.100525%, 17.28363%)" offset="0.53125"/><stop stop-opacity="1" stop-color="rgb(77.597046%, 17.3172%, 17.245483%)" offset="0.5625"/><stop stop-opacity="1" stop-color="rgb(77.799988%, 17.533875%, 17.207336%)" offset="0.59375"/><stop stop-opacity="1" stop-color="rgb(78.004456%, 17.752075%, 17.169189%)" offset="0.625"/><stop stop-opacity="1" stop-color="rgb(78.208923%, 17.96875%, 17.131042%)" offset="0.65625"/><stop stop-opacity="1" stop-color="rgb(78.411865%, 18.185425%, 17.092896%)" offset="0.6875"/><stop stop-opacity="1" stop-color="rgb(78.616333%, 18.4021%, 17.054749%)" offset="0.71875"/><stop stop-opacity="1" stop-color="rgb(78.820801%, 18.6203%, 17.018127%)" offset="0.75"/><stop stop-opacity="1" stop-color="rgb(79.025269%, 18.836975%, 16.97998%)" offset="0.78125"/><stop stop-opacity="1" stop-color="rgb(79.22821%, 19.05365%, 16.941833%)" offset="0.8125"/><stop stop-opacity="1" stop-color="rgb(79.432678%, 19.270325%, 16.903687%)" offset="0.84375"/><stop stop-opacity="1" stop-color="rgb(79.637146%, 19.488525%, 16.86554%)" offset="0.875"/><stop stop-opacity="1" stop-color="rgb(79.840088%, 19.7052%, 16.827393%)" offset="0.90625"/><stop stop-opacity="1" stop-color="rgb(80.044556%, 19.921875%, 16.789246%)" offset="0.9375"/><stop stop-opacity="1" stop-color="rgb(80.249023%, 20.140076%, 16.751099%)" offset="0.96875"/><stop stop-opacity="1" stop-color="rgb(80.453491%, 20.35675%, 16.712952%)" offset="1"/></linearGradient></defs><rect x="-81" width="972" fill="#ffffff" y="-143.999994" height="1727.999922" fill-opacity="1"/><rect x="-81" width="972" fill="#fcfcfc" y="-143.999994" height="1727.999922" fill-opacity="1"/><g mask="url(#b7a9a9888f)"><g transform="matrix(1, 0, 0, 1, 0, -0.000000000000101068)"><g clip-path="url(#c519352513)"><g clip-path="url(#ad08cc1c72)"><path fill="#f15a24" d="M -25.367188 -380.609375 C 11.9375 -451.488281 98.152344 -455.632812 170.480469 -449.003906 C 251.304688 -441.542969 292.960938 -463.09375 361.144531 -502.679688 C 416.480469 -534.800781 467.671875 -533.765625 526.320312 -503.714844 C 597.199219 -467.238281 582.691406 -401.957031 640.101562 -360.507812 C 693.363281 -321.960938 773.773438 -339.160156 830.351562 -303.515625 C 887.136719 -267.660156 902.472656 -205.695312 899.363281 -141.65625 C 895.011719 -54.40625 850.039062 27.25 866 115.742188 C 878.847656 187.035156 953.25 260.195312 916.152344 335.425781 C 846.722656 476.144531 629.945312 358.222656 518.445312 378.738281 C 397.828125 401.121094 215.039062 534.796875 98.980469 416.042969 C 47.582031 363.609375 75.355469 280.089844 74.316406 216.050781 C 72.867188 126.933594 42.402344 99.992188 -19.773438 41.964844 C -79.667969 -13.785156 -127.125 -41.554688 -103.5 -125.90625 C -89.40625 -176.472656 -20.601562 -187.664062 -7.753906 -221.03125 C 7.792969 -262.6875 -46.714844 -340.40625 -25.367188 -380.609375 Z M -25.367188 -380.609375 " fill-opacity="1" fill-rule="nonzero"/></g></g></g></g><g mask="url(#e87ada6377)"><g transform="matrix(1, 0, 0, 1, 0, -0.000000000000101068)"><g clip-path="url(#3b7e81b9a2)"><g clip-path="url(#1417ec9af3)"><path fill="#f15a24" d="M -727.410156 -52.597656 C -690.105469 -123.476562 -603.890625 -127.621094 -531.5625 -120.988281 C -450.738281 -113.527344 -409.078125 -135.082031 -340.894531 -174.664062 C -285.5625 -206.789062 -234.371094 -205.75 -175.71875 -175.703125 C -104.84375 -139.226562 -119.347656 -73.941406 -61.941406 -32.492188 C -8.679688 6.054688 71.730469 -11.148438 128.308594 24.5 C 185.09375 60.351562 200.429688 122.320312 197.324219 186.359375 C 192.96875 273.609375 148 355.265625 163.957031 443.757812 C 176.804688 515.050781 251.207031 588.207031 214.109375 663.4375 C 144.683594 804.160156 -72.097656 686.234375 -183.597656 706.753906 C -304.214844 729.136719 -487.003906 862.808594 -603.0625 744.058594 C -654.460938 691.625 -626.6875 608.105469 -627.726562 544.066406 C -629.175781 454.949219 -659.640625 428.007812 -721.816406 369.976562 C -781.707031 314.230469 -829.167969 286.457031 -805.542969 202.109375 C -791.449219 151.539062 -722.644531 140.347656 -709.792969 106.984375 C -694.25 65.328125 -748.757812 -12.390625 -727.410156 -52.597656 Z M -727.410156 -52.597656 " fill-opacity="1" fill-rule="nonzero"/></g></g></g></g><g mask="url(#ef263d6fb3)"><g transform="matrix(1, 0, 0, 1, 546, 989)"><g clip-path="url(#a9706c0cb8)"><g clip-path="url(#650cc50bf3)"><path fill="#f15a24" d="M 85.507812 148.652344 C 122.8125 77.773438 209.027344 73.628906 281.355469 80.261719 C 362.183594 87.722656 403.839844 66.167969 472.023438 26.582031 C 527.359375 -5.539062 578.546875 -4.503906 637.199219 25.546875 C 708.078125 62.023438 693.570312 127.304688 750.976562 168.753906 C 804.238281 207.300781 884.648438 190.101562 941.230469 225.746094 C 998.015625 261.601562 1013.351562 323.566406 1010.242188 387.605469 C 1005.890625 474.855469 960.917969 556.511719 976.875 645.007812 C 989.722656 716.300781 1064.125 789.457031 1027.027344 864.6875 C 957.601562 1005.40625 740.820312 887.484375 629.324219 908 C 508.707031 930.382812 325.914062 1064.058594 209.855469 945.304688 C 158.460938 892.871094 186.230469 809.351562 185.195312 745.3125 C 183.742188 656.199219 153.277344 629.253906 91.105469 571.226562 C 31.210938 515.476562 -16.25 487.707031 7.375 403.355469 C 21.46875 352.789062 90.273438 341.597656 103.125 308.230469 C 118.667969 266.574219 64.164062 188.855469 85.507812 148.652344 Z M 85.507812 148.652344 " fill-opacity="1" fill-rule="nonzero"/></g></g></g></g><g clip-path="url(#1fd4a79e56)"><g clip-path="url(#69fadbf808)"><g clip-path="url(#98e9afc35b)"><g clip-path="url(#5a4aee129f)"><path fill="url(#93f2004356)" d="M 323.695312 1426.261719 L 254.742188 1182.402344 L -48.585938 1268.171875 L 20.367188 1512.03125 Z M 323.695312 1426.261719 " fill-rule="nonzero"/></g></g></g></g><g fill="#ffffff" fill-opacity="1"><g transform="translate(346.555653, 1011.95286)"><g><path d="M 10.546875 0.25 C 8.921875 0.25 7.460938 -0.0351562 6.171875 -0.609375 C 4.890625 -1.191406 3.878906 -1.992188 3.140625 -3.015625 C 2.410156 -4.046875 2.035156 -5.234375 2.015625 -6.578125 L 5.453125 -6.578125 C 5.566406 -5.421875 6.039062 -4.445312 6.875 -3.65625 C 7.71875 -2.875 8.941406 -2.484375 10.546875 -2.484375 C 12.085938 -2.484375 13.300781 -2.863281 14.1875 -3.625 C 15.070312 -4.394531 15.515625 -5.378906 15.515625 -6.578125 C 15.515625 -7.523438 15.253906 -8.289062 14.734375 -8.875 C 14.210938 -9.46875 13.5625 -9.914062 12.78125 -10.21875 C 12 -10.53125 10.945312 -10.863281 9.625 -11.21875 C 8 -11.644531 6.695312 -12.070312 5.71875 -12.5 C 4.738281 -12.925781 3.898438 -13.59375 3.203125 -14.5 C 2.503906 -15.40625 2.15625 -16.625 2.15625 -18.15625 C 2.15625 -19.507812 2.5 -20.703125 3.1875 -21.734375 C 3.875 -22.773438 4.835938 -23.578125 6.078125 -24.140625 C 7.316406 -24.710938 8.738281 -25 10.34375 -25 C 12.65625 -25 14.546875 -24.421875 16.015625 -23.265625 C 17.492188 -22.109375 18.328125 -20.570312 18.515625 -18.65625 L 14.984375 -18.65625 C 14.859375 -19.601562 14.359375 -20.4375 13.484375 -21.15625 C 12.617188 -21.875 11.460938 -22.234375 10.015625 -22.234375 C 8.671875 -22.234375 7.570312 -21.882812 6.71875 -21.1875 C 5.875 -20.488281 5.453125 -19.515625 5.453125 -18.265625 C 5.453125 -17.367188 5.703125 -16.632812 6.203125 -16.0625 C 6.710938 -15.5 7.335938 -15.070312 8.078125 -14.78125 C 8.828125 -14.488281 9.875 -14.148438 11.21875 -13.765625 C 12.851562 -13.316406 14.164062 -12.875 15.15625 -12.4375 C 16.144531 -12.007812 16.992188 -11.335938 17.703125 -10.421875 C 18.410156 -9.515625 18.765625 -8.285156 18.765625 -6.734375 C 18.765625 -5.523438 18.445312 -4.390625 17.8125 -3.328125 C 17.175781 -2.265625 16.226562 -1.398438 14.96875 -0.734375 C 13.71875 -0.078125 12.242188 0.25 10.546875 0.25 Z M 10.546875 0.25 "/></g></g></g><g fill="#ffffff" fill-opacity="1"><g transform="translate(367.329974, 1011.95286)"><g><path d="M 4.390625 -22.546875 C 3.773438 -22.546875 3.253906 -22.757812 2.828125 -23.1875 C 2.398438 -23.613281 2.1875 -24.132812 2.1875 -24.75 C 2.1875 -25.363281 2.398438 -25.878906 2.828125 -26.296875 C 3.253906 -26.722656 3.773438 -26.9375 4.390625 -26.9375 C 4.984375 -26.9375 5.484375 -26.722656 5.890625 -26.296875 C 6.304688 -25.878906 6.515625 -25.363281 6.515625 -24.75 C 6.515625 -24.132812 6.304688 -23.613281 5.890625 -23.1875 C 5.484375 -22.757812 4.984375 -22.546875 4.390625 -22.546875 Z M 5.953125 -19.40625 L 5.953125 0 L 2.71875 0 L 2.71875 -19.40625 Z M 5.953125 -19.40625 "/></g></g></g><g fill="#ffffff" fill-opacity="1"><g transform="translate(376.036078, 1011.95286)"><g><path d="M 10.734375 -19.71875 C 12.398438 -19.71875 13.863281 -19.351562 15.125 -18.625 C 16.394531 -17.894531 17.335938 -16.972656 17.953125 -15.859375 L 17.953125 -19.40625 L 21.203125 -19.40625 L 21.203125 0.421875 C 21.203125 2.191406 20.820312 3.765625 20.0625 5.140625 C 19.3125 6.523438 18.234375 7.609375 16.828125 8.390625 C 15.429688 9.171875 13.800781 9.5625 11.9375 9.5625 C 9.382812 9.5625 7.257812 8.957031 5.5625 7.75 C 3.863281 6.550781 2.859375 4.910156 2.546875 2.828125 L 5.734375 2.828125 C 6.085938 4.015625 6.816406 4.96875 7.921875 5.6875 C 9.035156 6.40625 10.375 6.765625 11.9375 6.765625 C 13.707031 6.765625 15.148438 6.207031 16.265625 5.09375 C 17.390625 3.988281 17.953125 2.429688 17.953125 0.421875 L 17.953125 -3.640625 C 17.316406 -2.515625 16.367188 -1.570312 15.109375 -0.8125 C 13.859375 -0.0625 12.398438 0.3125 10.734375 0.3125 C 9.003906 0.3125 7.4375 -0.109375 6.03125 -0.953125 C 4.632812 -1.804688 3.53125 -3 2.71875 -4.53125 C 1.914062 -6.0625 1.515625 -7.804688 1.515625 -9.765625 C 1.515625 -11.753906 1.914062 -13.5 2.71875 -15 C 3.53125 -16.5 4.632812 -17.660156 6.03125 -18.484375 C 7.4375 -19.304688 9.003906 -19.71875 10.734375 -19.71875 Z M 17.953125 -9.734375 C 17.953125 -11.203125 17.65625 -12.476562 17.0625 -13.5625 C 16.476562 -14.644531 15.679688 -15.472656 14.671875 -16.046875 C 13.671875 -16.628906 12.566406 -16.921875 11.359375 -16.921875 C 10.160156 -16.921875 9.0625 -16.632812 8.0625 -16.0625 C 7.070312 -15.5 6.28125 -14.675781 5.6875 -13.59375 C 5.101562 -12.507812 4.8125 -11.234375 4.8125 -9.765625 C 4.8125 -8.285156 5.101562 -6.992188 5.6875 -5.890625 C 6.28125 -4.796875 7.070312 -3.957031 8.0625 -3.375 C 9.0625 -2.800781 10.160156 -2.515625 11.359375 -2.515625 C 12.566406 -2.515625 13.671875 -2.800781 14.671875 -3.375 C 15.679688 -3.957031 16.476562 -4.796875 17.0625 -5.890625 C 17.65625 -6.992188 17.953125 -8.273438 17.953125 -9.734375 Z M 17.953125 -9.734375 "/></g></g></g><g fill="#ffffff" fill-opacity="1"><g transform="translate(399.960167, 1011.95286)"><g><path d="M 12.1875 -19.75 C 14.539062 -19.75 16.445312 -19.035156 17.90625 -17.609375 C 19.375 -16.179688 20.109375 -14.125 20.109375 -11.4375 L 20.109375 0 L 16.921875 0 L 16.921875 -10.96875 C 16.921875 -12.90625 16.4375 -14.382812 15.46875 -15.40625 C 14.5 -16.4375 13.175781 -16.953125 11.5 -16.953125 C 9.800781 -16.953125 8.453125 -16.421875 7.453125 -15.359375 C 6.453125 -14.296875 5.953125 -12.753906 5.953125 -10.734375 L 5.953125 0 L 2.71875 0 L 2.71875 -19.40625 L 5.953125 -19.40625 L 5.953125 -16.640625 C 6.585938 -17.628906 7.453125 -18.394531 8.546875 -18.9375 C 9.648438 -19.476562 10.863281 -19.75 12.1875 -19.75 Z M 12.1875 -19.75 "/></g></g></g><g fill="#ffffff" fill-opacity="1"><g transform="translate(422.610197, 1011.95286)"><g/></g></g><g fill="#ffffff" fill-opacity="1"><g transform="translate(432.059503, 1011.95286)"><g><path d="M 5.953125 -24.671875 L 5.953125 0 L 2.71875 0 L 2.71875 -24.671875 Z M 5.953125 -24.671875 "/></g></g></g><g fill="#ffffff" fill-opacity="1"><g transform="translate(440.765606, 1011.95286)"><g><path d="M 12.1875 -19.75 C 14.539062 -19.75 16.445312 -19.035156 17.90625 -17.609375 C 19.375 -16.179688 20.109375 -14.125 20.109375 -11.4375 L 20.109375 0 L 16.921875 0 L 16.921875 -10.96875 C 16.921875 -12.90625 16.4375 -14.382812 15.46875 -15.40625 C 14.5 -16.4375 13.175781 -16.953125 11.5 -16.953125 C 9.800781 -16.953125 8.453125 -16.421875 7.453125 -15.359375 C 6.453125 -14.296875 5.953125 -12.753906 5.953125 -10.734375 L 5.953125 0 L 2.71875 0 L 2.71875 -19.40625 L 5.953125 -19.40625 L 5.953125 -16.640625 C 6.585938 -17.628906 7.453125 -18.394531 8.546875 -18.9375 C 9.648438 -19.476562 10.863281 -19.75 12.1875 -19.75 Z M 12.1875 -19.75 "/></g></g></g></svg>