<svg xmlns="http://www.w3.org/2000/svg" xmlns:xlink="http://www.w3.org/1999/xlink" width="1080" zoomAndPan="magnify" viewBox="0 0 810 1439.999935" height="1920" preserveAspectRatio="xMidYMid meet" version="1.0"><defs><filter x="0%" y="0%" width="100%" height="100%" id="29bd53bdc7"><feColorMatrix values="0 0 0 0 1 0 0 0 0 1 0 0 0 0 1 0 0 0 1 0" color-interpolation-filters="sRGB"/></filter><mask id="3693d8a75a"><g filter="url(#29bd53bdc7)"><rect x="-81" width="972" fill="#000000" y="-143.999994" height="1727.999922" fill-opacity="0.06"/></g></mask><clipPath id="eb16287629"><path d="M 0 0 L 810 0 L 810 465 L 0 465 Z M 0 0 " clip-rule="nonzero"/></clipPath><clipPath id="d8f252b901"><rect x="0" width="810" y="0" height="467"/></clipPath><mask id="baa837dd2e"><g filter="url(#29bd53bdc7)"><rect x="-81" width="972" fill="#000000" y="-143.999994" height="1727.999922" fill-opacity="0.05"/></g></mask><clipPath id="846ed158c7"><path d="M 0 0 L 225 0 L 225 839 L 0 839 Z M 0 0 " clip-rule="nonzero"/></clipPath><clipPath id="66a2354035"><rect x="0" width="227" y="0" height="841"/></clipPath><clipPath id="2506f9011c"><path d="M 0 1114 L 810 1114 L 810 1440 L 0 1440 Z M 0 1114 " clip-rule="nonzero"/></clipPath><clipPath id="6f338f7b2a"><path d="M 1203.429688 2138.292969 L -281.378906 2886.679688 L -913.976562 1631.59375 L 570.832031 883.207031 Z M 1203.429688 2138.292969 " clip-rule="nonzero"/></clipPath><clipPath id="10150da8d2"><path d="M 1203.429688 2138.292969 L -281.378906 2886.679688 L -913.976562 1631.59375 L 570.832031 883.207031 Z M 1203.429688 2138.292969 " clip-rule="nonzero"/></clipPath><clipPath id="f327f959c8"><path d="M 25.285156 2483.097656 C 90.699219 2452.652344 145.324219 2409.132812 188.160156 2357.257812 C 224.304688 2313.800781 287.097656 2303.183594 335.242188 2333.601562 C 432.527344 2393.089844 557.875 2403.105469 667.226562 2347.988281 C 738.335938 2312.148438 791.570312 2254.1875 822.597656 2187.230469 C 872.308594 2078.886719 858.800781 1951.933594 791.957031 1852.703125 L 726.46875 1756.152344 C 718.703125 1744.082031 721.675781 1728.28125 733.746094 1720.515625 C 843.714844 1649.945312 885.253906 1507.023438 825.066406 1387.613281 C 773.671875 1285.640625 662.628906 1232.246094 555.84375 1249.050781 C 545.097656 1251.101562 533.660156 1246.769531 526.914062 1238.390625 C 423.71875 1117.101562 248.214844 1077.6875 99.957031 1152.414062 C -12.746094 1209.21875 -81.605469 1317.960938 -92.316406 1435.246094 C -99.78125 1517.25 -160.039062 1584.636719 -241.304688 1596.992188 C -288.316406 1603.863281 -335.304688 1619.132812 -380.25 1641.789062 C -608.339844 1756.753906 -701.1875 2033.21875 -590.253906 2261.660156 C -480.664062 2490.773438 -204.511719 2589.667969 25.285156 2483.097656 Z M 25.285156 2483.097656 " clip-rule="nonzero"/></clipPath><linearGradient x1="-16.777396" gradientTransform="matrix(-6.708536, 3.381294, -3.381294, -6.708536, 1203.094564, 2137.626344)" y1="95.099998" x2="101.211294" gradientUnits="userSpaceOnUse" y2="95.099998" id="4062688da6"><stop stop-opacity="1" stop-color="rgb(75.698853%, 15.299988%, 17.599487%)" offset="0"/><stop stop-opacity="1" stop-color="rgb(75.698853%, 15.299988%, 17.599487%)" offset="0.125"/><stop stop-opacity="1" stop-color="rgb(75.769043%, 15.374756%, 17.585754%)" offset="0.15625"/><stop stop-opacity="1" stop-color="rgb(75.997925%, 15.615845%, 17.54303%)" offset="0.1875"/><stop stop-opacity="1" stop-color="rgb(76.31073%, 15.950012%, 17.485046%)" offset="0.21875"/><stop stop-opacity="1" stop-color="rgb(76.625061%, 16.28418%, 17.427063%)" offset="0.25"/><stop stop-opacity="1" stop-color="rgb(76.939392%, 16.618347%, 17.367554%)" offset="0.28125"/><stop stop-opacity="1" stop-color="rgb(77.253723%, 16.952515%, 17.30957%)" offset="0.3125"/><stop stop-opacity="1" stop-color="rgb(77.566528%, 17.286682%, 17.251587%)" offset="0.34375"/><stop stop-opacity="1" stop-color="rgb(77.880859%, 17.619324%, 17.192078%)" offset="0.375"/><stop stop-opacity="1" stop-color="rgb(78.19519%, 17.953491%, 17.134094%)" offset="0.40625"/><stop stop-opacity="1" stop-color="rgb(78.509521%, 18.287659%, 17.076111%)" offset="0.4375"/><stop stop-opacity="1" stop-color="rgb(78.823853%, 18.621826%, 17.018127%)" offset="0.46875"/><stop stop-opacity="1" stop-color="rgb(79.136658%, 18.955994%, 16.958618%)" offset="0.5"/><stop stop-opacity="1" stop-color="rgb(79.450989%, 19.290161%, 16.900635%)" offset="0.53125"/><stop stop-opacity="1" stop-color="rgb(79.76532%, 19.624329%, 16.842651%)" offset="0.5625"/><stop stop-opacity="1" stop-color="rgb(80.079651%, 19.958496%, 16.783142%)" offset="0.59375"/><stop stop-opacity="1" stop-color="rgb(80.392456%, 20.292664%, 16.725159%)" offset="0.625"/><stop stop-opacity="1" stop-color="rgb(80.706787%, 20.626831%, 16.667175%)" offset="0.65625"/><stop stop-opacity="1" stop-color="rgb(81.021118%, 20.959473%, 16.607666%)" offset="0.6875"/><stop stop-opacity="1" stop-color="rgb(81.335449%, 21.29364%, 16.549683%)" offset="0.71875"/><stop stop-opacity="1" stop-color="rgb(81.648254%, 21.627808%, 16.491699%)" offset="0.75"/><stop stop-opacity="1" stop-color="rgb(81.962585%, 21.961975%, 16.43219%)" offset="0.78125"/><stop stop-opacity="1" stop-color="rgb(82.276917%, 22.296143%, 16.374207%)" offset="0.8125"/><stop stop-opacity="1" stop-color="rgb(82.591248%, 22.63031%, 16.316223%)" offset="0.84375"/><stop stop-opacity="1" stop-color="rgb(82.905579%, 22.964478%, 16.25824%)" offset="0.875"/><stop stop-opacity="1" stop-color="rgb(83.218384%, 23.298645%, 16.19873%)" offset="0.90625"/><stop stop-opacity="1" stop-color="rgb(83.532715%, 23.632812%, 16.140747%)" offset="0.9375"/><stop stop-opacity="1" stop-color="rgb(83.847046%, 23.96698%, 16.082764%)" offset="0.96875"/><stop stop-opacity="1" stop-color="rgb(84.161377%, 24.301147%, 16.023254%)" offset="1"/></linearGradient></defs><rect x="-81" width="972" fill="#ffffff" y="-143.999994" height="1727.999922" fill-opacity="1"/><rect x="-81" width="972" fill="#fcfcfc" y="-143.999994" height="1727.999922" fill-opacity="1"/><g mask="url(#3693d8a75a)"><g transform="matrix(1, 0, 0, 1, 0, -0.000000000000101068)"><g clip-path="url(#d8f252b901)"><g clip-path="url(#eb16287629)"><path fill="#f15a24" d="M -25.367188 -380.609375 C 11.9375 -451.488281 98.152344 -455.632812 170.480469 -449.003906 C 251.304688 -441.542969 292.960938 -463.09375 361.144531 -502.679688 C 416.480469 -534.800781 467.671875 -533.765625 526.320312 -503.714844 C 597.199219 -467.238281 582.691406 -401.957031 640.101562 -360.507812 C 693.363281 -321.960938 773.773438 -339.160156 830.351562 -303.515625 C 887.136719 -267.660156 902.472656 -205.695312 899.363281 -141.65625 C 895.011719 -54.40625 850.039062 27.25 866 115.742188 C 878.847656 187.035156 953.25 260.195312 916.152344 335.425781 C 846.722656 476.144531 629.945312 358.222656 518.445312 378.738281 C 397.828125 401.121094 215.039062 534.796875 98.980469 416.042969 C 47.582031 363.609375 75.355469 280.089844 74.316406 216.050781 C 72.867188 126.933594 42.402344 99.992188 -19.773438 41.964844 C -79.667969 -13.785156 -127.125 -41.554688 -103.5 -125.90625 C -89.40625 -176.472656 -20.601562 -187.664062 -7.753906 -221.03125 C 7.792969 -262.6875 -46.714844 -340.40625 -25.367188 -380.609375 Z M -25.367188 -380.609375 " fill-opacity="1" fill-rule="nonzero"/></g></g></g></g><g mask="url(#baa837dd2e)"><g transform="matrix(1, 0, 0, 1, 0, -0.000000000000101068)"><g clip-path="url(#66a2354035)"><g clip-path="url(#846ed158c7)"><path fill="#f15a24" d="M -727.410156 -6.675781 C -690.105469 -77.550781 -603.890625 -81.699219 -531.5625 -75.066406 C -450.738281 -67.605469 -409.078125 -89.160156 -340.894531 -128.742188 C -285.5625 -160.867188 -234.371094 -159.828125 -175.71875 -129.777344 C -104.84375 -93.304688 -119.347656 -28.019531 -61.941406 13.429688 C -8.679688 51.976562 71.730469 34.773438 128.308594 70.421875 C 185.09375 106.273438 200.429688 168.242188 197.324219 232.28125 C 192.96875 319.53125 148 401.1875 163.957031 489.679688 C 176.804688 560.972656 251.207031 634.132812 214.109375 709.363281 C 144.683594 850.082031 -72.097656 732.160156 -183.597656 752.675781 C -304.214844 775.058594 -487.003906 908.734375 -603.0625 789.980469 C -654.460938 737.546875 -626.6875 654.027344 -627.726562 589.988281 C -629.175781 500.871094 -659.640625 473.929688 -721.816406 415.902344 C -781.707031 360.152344 -829.167969 332.378906 -805.542969 248.03125 C -791.449219 197.464844 -722.644531 186.273438 -709.792969 152.90625 C -694.25 111.25 -748.757812 33.53125 -727.410156 -6.675781 Z M -727.410156 -6.675781 " fill-opacity="1" fill-rule="nonzero"/></g></g></g></g><g clip-path="url(#2506f9011c)"><g clip-path="url(#6f338f7b2a)"><g clip-path="url(#10150da8d2)"><g clip-path="url(#f327f959c8)"><path fill="url(#4062688da6)" d="M 955.621094 1366.601562 L 645.910156 752.128906 L -145.621094 1151.085938 L 164.089844 1765.558594 Z M 955.621094 1366.601562 " fill-rule="nonzero"/></g></g></g></g></svg>